<svg width="242" height="242" version="1.1" viewBox="0 0 64 64" xmlns="http://www.w3.org/2000/svg"><path transform="matrix(.75 0 0 .75 72 -49.6)" d="m-21.7 109-15.9 27.4-31.7-0.0369-15.8-27.4 15.9-27.4 31.7 0.0369z" fill="#fff" stroke-width="1.06"/><rect x="56.4" y="31.1" width="7.61" height="1.87" fill="#b53795" stroke-width=".794"/><rect x="-1.62e-6" y="31.1" width="7.19" height="1.59" fill="#c71f10" stroke-width=".794"/><path d="m21.2 43.9 8.56-23.3h4.28l8.58 23.3-4.88-0.0219-1.77-4.76h-8.15l-1.74 4.77-4.89 0.0083zm13.8-8.49-3.09-9.13-3.06 9.13z" fill="#e95a02" stroke-width=".265"/><path d="m19.3 54.2-8.37-14.1-7.81-0.143 0.0011-2.12 6.56 0.0266-3.27-5.83 3.36-5.83-6.64 0.0055-0.0099-2.12 7.85-0.0166 8.21-14.1h25.4l8.19 14.1 8.38 0.0559 5e-3 2.07-7.16-0.0051 3.36 5.86-1.65 2.9-1.66 2.89 7.12-0.0095-0.0123 2.13-8.35-0.0022-8.2 14.3-25.3-0.0068zm24-2.11 11.5-20.1-11.3-19.7h-23.1l-11.3 19.8 11.7 20.1z" fill="#020202" stroke-width=".265"/></svg>
